<?xml version="1.0"?>
<svg xmlns="http://www.w3.org/2000/svg" xmlns:xlink="http://www.w3.org/1999/xlink" version="1.1" id="Capa_1" x="0px" y="0px" viewBox="0 0 512 512" style="enable-background:new 0 0 512 512;" xml:space="preserve" width="512px" height="512px"><g><g>
	<g>
		<path d="M221.282,132.499v-20.8h-20.32l7.36-29.28h-24.16l-7.2,29.28h-9.6l7.36-29.28h-24.16l-7.2,29.28h-23.52v20.8h18.4    l-3.2,13.92h-23.36v22.4h17.92l-6.72,27.2h24.16l6.56-27.2h9.6l-6.72,27.2h24.16l6.56-27.2h25.92v-22.4h-20.48l3.2-13.92H221.282z     M168.642,146.419h-9.6l3.2-13.92h9.6L168.642,146.419z" data-original="#000000" class="active-path" data-old_color="#000000" fill="#FFFFFF"/>
	</g>
</g><g>
	<g>
		<rect x="238.08" y="166.58" width="30.4" height="29.44" data-original="#000000" class="active-path" data-old_color="#000000" fill="#FFFFFF"/>
	</g>
</g><g>
	<g>
		<rect x="238.08" y="81.3" width="30.4" height="66.72" data-original="#000000" class="active-path" data-old_color="#000000" fill="#FFFFFF"/>
	</g>
</g><g>
	<g>
		<path d="M374.879,169.299c3.092-5.225,5.544-11.12,7.36-17.68c1.813-6.56,2.772-13.945,2.88-22.16h-24.48    c0,4.055-0.32,7.815-0.96,11.28c-0.64,3.467-1.548,6.695-2.72,9.68l-13.12-13.92c4.48-3.84,8.053-8.052,10.72-12.64    c2.665-4.585,4-9.76,4-15.52c0-4.905-0.96-9.092-2.88-12.56c-1.92-3.465-4.455-6.292-7.6-8.48c-3.147-2.185-6.72-3.785-10.72-4.8    c-4-1.013-8.08-1.52-12.24-1.52c-4.8,0-9.228,0.667-13.28,2c-4.055,1.335-7.547,3.228-10.48,5.68    c-2.935,2.455-5.255,5.52-6.96,9.2c-1.708,3.68-2.56,7.815-2.56,12.4c0,3.947,0.693,7.547,2.08,10.8    c1.385,3.255,3.785,6.96,7.2,11.12c-4.375,3.52-8.135,7.655-11.28,12.4c-3.147,4.748-4.72,10.375-4.72,16.88    c0,4.375,0.853,8.72,2.56,13.04c1.705,4.32,4.24,8.188,7.6,11.6c3.36,3.415,7.52,6.188,12.48,8.32    c4.96,2.133,10.745,3.2,17.36,3.2c5.012,0,10-0.64,14.96-1.92c4.96-1.28,9.732-3.305,14.32-6.08l6.08,6.4h39.84L374.879,169.299z     M320.878,104.739c1.013-1.12,2.425-1.68,4.24-1.68c1.705,0,3.065,0.48,4.08,1.44c1.012,0.96,1.52,2.348,1.52,4.16    c0,1.708-0.48,3.12-1.44,4.24c-0.96,1.12-2.507,2.428-4.64,3.92c-1.92-1.813-3.28-3.225-4.08-4.24c-0.8-1.013-1.2-2.212-1.2-3.6    C319.358,107.274,319.864,105.859,320.878,104.739z M328.318,173.939c-2.56,0-4.747-0.425-6.56-1.28    c-1.815-0.853-3.28-1.92-4.4-3.2c-1.12-1.28-1.92-2.64-2.4-4.08s-0.72-2.745-0.72-3.92c0-2.985,1.813-5.973,5.44-8.96l18.08,19.36    C334.663,173.247,331.518,173.939,328.318,173.939z" data-original="#000000" class="active-path" data-old_color="#000000" fill="#FFFFFF"/>
	</g>
</g><g>
	<g>
		<path d="M512,290.019v-290H0v290h161.488l-46,90h75.195l-78.152,131.962l297.845-180.962h-99.552l24.658-41H512z M257.775,361.019    h45.448l-103.754,63.038l43.848-74.038h-78.805l46-90H30v-230h452v230H318.518L257.775,361.019z" data-original="#000000" class="active-path" data-old_color="#000000" fill="#FFFFFF"/>
	</g>
</g></g> </svg>
