<?xml version="1.0"?>
<svg xmlns="http://www.w3.org/2000/svg" height="512px" viewBox="0 0 512 512.00011" width="512px"><g><path d="m256 512c143.546875 0 256-44.980469 256-102.398438 0-26.925781-24.003906-51.679687-67.855469-70.339843 10.5625-16.859375 18.796875-35.070313 24.480469-54.136719v-.152344c12.265625-41.175781 12.265625-85.035156 0-126.210937v-.152344c-10.902344-36.460937-30.996094-69.507813-58.351562-95.964844-.246094-.273437-.511719-.527343-.792969-.761719-26.566407-25.542968-59.078125-44.0625-94.601563-53.886718l-.273437-.078125c-38.359375-10.558594-78.859375-10.558594-117.222657 0l-.261718.078125c-35.519532 9.828125-68.03125 28.347656-94.601563 53.886718-.28125.234376-.546875.488282-.792969.761719-27.355468 26.457031-47.449218 59.503907-58.351562 95.964844v.152344c-12.265625 41.175781-12.265625 85.035156 0 126.210937v.152344c5.683594 19.066406 13.917969 37.277344 24.480469 54.136719-43.851563 18.660156-67.855469 43.414062-67.855469 70.339843 0 57.417969 112.453125 102.398438 256 102.398438zm-195.242188-228.308594 29.601563-53.292968h75.28125l21.332031 38.402343 16.597656 29.867188-16.585937 29.867187-21.335937 38.398438h-54.058594c-23.390625-23.257813-40.828125-51.8125-50.832032-83.242188zm-9.558593-61.824218c.015625-12.597657 1.191406-25.167969 3.515625-37.546876l20.855468 37.546876-20.855468 37.546874c-2.324219-12.382812-3.5-24.949218-3.515625-37.546874zm167.160156-68.265626h75.28125l21.332031 38.398438 16.597656 29.867188-16.585937 29.867187-21.335937 38.398437h-75.289063l-21.332031-38.398437-16.597656-29.867187 16.589843-29.867188zm-52.71875 230.398438 15.855469 28.578125c-18.070313-7.089844-35.042969-16.710937-50.40625-28.578125zm39.65625 36.308594-24.867187-44.84375 6.894531-12.414063 31.035156-55.851562h75.28125l31.035156 55.859375 6.894531 12.40625-24.863281 44.835937c-33.273437 8.476563-68.140625 8.476563-101.410156 0zm141.0625-36.308594h34.550781c-15.363281 11.867188-32.332031 21.488281-50.40625 28.578125zm54.050781-17.066406h-54.050781l-21.332031-38.398438-16.597656-29.867187 16.589843-29.867188 21.332031-38.402343h75.28125l29.601563 53.292968c-10 31.429688-27.4375 59.984375-50.824219 83.242188zm60.390625-145.066406c-.015625 12.597656-1.191406 25.164062-3.515625 37.546874l-20.855468-37.546874 20.855468-37.546876c2.324219 12.378907 3.5 24.949219 3.515625 37.546876zm-9.558593-61.824219-29.601563 53.289062h-75.28125l-21.332031-38.398437-16.597656-29.867188 16.589843-29.867187 21.332031-38.398438h54.050782c23.394531 23.253907 40.835937 51.808594 50.839844 83.242188zm-104.882813-100.308594-15.855469-28.578125c18.074219 7.089844 35.042969 16.710938 50.40625 28.578125zm-39.652344-36.308594 24.863281 44.839844-6.894531 12.417969-31.035156 55.851562h-75.28125l-31.035156-55.859375-6.894531-12.410156 24.867187-44.832031c33.269531-8.476563 68.136719-8.476563 101.410156 0zm-141.066406 36.308594h-34.550781c15.363281-11.867187 32.335937-21.488281 50.40625-28.578125zm-54.050781 17.066406h54.050781l21.332031 38.398438 16.597656 29.867187-16.585937 29.867188-21.335937 38.398437h-75.289063l-29.601563-53.289062c10.003907-31.433594 27.441407-59.988281 50.832032-83.242188zm-33.9375 276.871094c7.265625 9.78125 15.316406 18.949219 24.074218 27.417969.246094.273437.511719.527344.792969.761718 26.5625 25.546876 59.078125 44.066407 94.601563 53.886719l.167968.066407.292969.070312c38.238281 10.480469 78.597657 10.480469 116.835938 0l.417969-.121094c35.539062-9.820312 68.070312-28.347656 94.644531-53.902344.28125-.234374.546875-.488281.792969-.761718 8.757812-8.46875 16.808593-17.636719 24.074218-27.417969 38.578125 15.820313 60.585938 35.984375 60.585938 55.929687 0 41.207032-96.007813 85.332032-238.933594 85.332032s-238.933594-44.125-238.933594-85.332032c0-19.945312 22.007813-40.109374 60.585938-55.929687zm0 0" data-original="#000000" class="active-path" data-old_color="#000000" fill="#FFFFFF"/></g> </svg>
