<?xml version="1.0"?>
<svg xmlns="http://www.w3.org/2000/svg" xmlns:xlink="http://www.w3.org/1999/xlink" version="1.1" id="Capa_1" x="0px" y="0px" viewBox="0 0 512.035 512.035" style="enable-background:new 0 0 512.035 512.035;" xml:space="preserve" width="512px" height="512px"><g><g>
	<g>
		<path d="M490.684,192H448.22c-3.027-9.139-6.702-18.051-10.997-26.667l29.995-30.005c0.002-0.002,0.004-0.004,0.006-0.006    c8.33-8.333,8.327-21.84-0.006-30.17L406.876,44.8c-0.006-0.006-0.011-0.011-0.017-0.017c-8.336-8.327-21.843-8.319-30.17,0.017    l-30.005,29.995c-8.615-4.295-17.527-7.966-26.667-10.987V21.333C320.018,9.551,310.466,0,298.684,0h-42.667v21.333h42.667v50.336    c-0.001,4.754,3.144,8.934,7.712,10.251c12.927,3.703,25.403,8.833,37.195,15.296c4.158,2.295,9.333,1.565,12.693-1.792    l35.509-35.531l60.331,60.341l-35.531,35.531c-3.362,3.362-4.093,8.543-1.792,12.704c6.464,11.777,11.594,24.238,15.296,37.152    c1.317,4.568,5.497,7.713,10.251,7.712h50.336v85.333h-50.336c-4.766,0.005-8.95,3.17-10.251,7.755    c-3.699,12.915-8.829,25.376-15.296,37.152c-2.295,4.158-1.565,9.333,1.792,12.693l35.531,35.499l-60.341,60.341l-35.541-35.531    c-3.36-3.357-8.535-4.087-12.693-1.792c-11.779,6.46-24.239,11.59-37.152,15.296c-4.568,1.317-7.713,5.497-7.712,10.251v50.336    h-42.667V512h42.667c11.782,0,21.333-9.551,21.333-21.333v-42.475c9.14-3.02,18.052-6.692,26.667-10.987L376.69,467.2    c0.006,0.006,0.011,0.011,0.017,0.017c8.336,8.327,21.843,8.319,30.17-0.017l60.341-60.352c8.328-8.331,8.328-21.835,0-30.165    l-29.995-30.016c4.295-8.616,7.971-17.528,10.997-26.667h42.464c11.782,0,21.333-9.551,21.333-21.333v-85.333    C512.018,201.551,502.466,192,490.684,192z" data-original="#000000" class="active-path" data-old_color="#000000" fill="#FFFFFF"/>
	</g>
</g><g>
	<g>
		<path d="M42.684,181.333V160H21.351c-11.782,0-21.333,9.551-21.333,21.333v128c0,11.782,9.551,21.333,21.333,21.333h21.333    v-21.333H21.351v-128H42.684z" data-original="#000000" class="active-path" data-old_color="#000000" fill="#FFFFFF"/>
	</g>
</g><g>
	<g>
		<path d="M53.351,32V10.667H32.017V32c0.062,0.634,0.062,1.273,0,1.907c-0.526,5.365-5.302,9.286-10.667,8.76    c-5.891,0-10.667,4.776-10.667,10.667v96h21.333V62.219C45.218,58.232,54.013,45.774,53.351,32z" data-original="#000000" class="active-path" data-old_color="#000000" fill="#FFFFFF"/>
	</g>
</g><g>
	<g>
		<path d="M85.351,64h64c5.891,0,10.667-4.776,10.667-10.667v-32h74.667V0h-74.667c-11.782,0-21.333,9.551-21.333,21.333v21.333    H85.351c-17.673,0-32,14.327-32,32v384c0,17.673,14.327,32,32,32h1.781c3.987,13.201,16.445,21.996,30.219,21.333h117.333v-21.333    H117.351c-0.634,0.062-1.273,0.062-1.907,0c-5.365-0.527-9.286-5.302-8.76-10.667c0-5.891-4.776-10.667-10.667-10.667H85.351    c-5.891,0-10.667-4.776-10.667-10.667v-384C74.684,68.776,79.46,64,85.351,64z" data-original="#000000" class="active-path" data-old_color="#000000" fill="#FFFFFF"/>
	</g>
</g><g>
	<g>
		<path d="M234.684,373.333V352h-85.333c-11.782,0-21.333,9.551-21.333,21.333V416c0,11.782,9.551,21.333,21.333,21.333h85.333V416    h-85.333v-42.667H234.684z" data-original="#000000" class="active-path" data-old_color="#000000" fill="#FFFFFF"/>
	</g>
</g><g>
	<g>
		<rect x="192.017" y="362.667" width="21.333" height="64" data-original="#000000" class="active-path" data-old_color="#000000" fill="#FFFFFF"/>
	</g>
</g><g>
	<g>
		<path d="M170.684,128c-35.346,0-64,28.654-64,64c0,35.346,28.654,64,64,64c35.332-0.035,63.965-28.668,64-64    C234.684,156.654,206.03,128,170.684,128z M170.684,234.667c-23.564,0-42.667-19.103-42.667-42.667s19.103-42.667,42.667-42.667    s42.667,19.103,42.667,42.667S194.248,234.667,170.684,234.667z" data-original="#000000" class="active-path" data-old_color="#000000" fill="#FFFFFF"/>
	</g>
</g><g>
	<g>
		<rect x="160.017" y="181.333" width="21.333" height="21.333" data-original="#000000" class="active-path" data-old_color="#000000" fill="#FFFFFF"/>
	</g>
</g><g>
	<g>
		<rect x="181.351" y="42.667" width="53.333" height="21.333" data-original="#000000" class="active-path" data-old_color="#000000" fill="#FFFFFF"/>
	</g>
</g><g>
	<g>
		<path d="M256.017,138.667V160c53.019,0,96,42.981,96,96s-42.981,96-96,96v21.333c64.801,0,117.333-52.532,117.333-117.333    S320.819,138.667,256.017,138.667z" data-original="#000000" class="active-path" data-old_color="#000000" fill="#FFFFFF"/>
	</g>
</g><g>
	<g>
		<rect x="245.351" y="245.333" width="21.333" height="21.333" data-original="#000000" class="active-path" data-old_color="#000000" fill="#FFFFFF"/>
	</g>
</g><g>
	<g>
		<rect x="288.017" y="245.333" width="21.333" height="21.333" data-original="#000000" class="active-path" data-old_color="#000000" fill="#FFFFFF"/>
	</g>
</g></g> </svg>
